Motion_pl07
version=1
nRows=15
nColumns=43
inDegrees=yes
endheader
time	pelvis_tilt	pelvis_list	pelvis_rotation	pelvis_tx	pelvis_ty	pelvis_tz	hip_flexion_r	hip_adduction_r	hip_rotation_r	knee_angle_r	ankle_angle_r	subtalar_angle_r	mtp_angle_r	hip_flexion_l	hip_adduction_l	hip_rotation_l	knee_angle_l	ankle_angle_l	subtalar_angle_l	mtp_angle_l	lumbar_extension	lumbar_bending	lumbar_rotation	neck_flexion	neck_lateral_bending	neck_rotation	arm_flex_r	arm_add_r	arm_rot_r	elbow_flex_r	pro_sup_r	wrist_flex_r	wrist_dev_r	hand_finger_flex_r	arm_flex_l	arm_add_l	arm_rot_l	elbow_flex_l	pro_sup_l	wrist_flex_l	wrist_dev_l	hand_finger_flex_l
      1.57750000	     -3.36874160	     -5.19860419	     88.85224415	      0.00018914	      0.81403282	      0.33043596	     45.91846882	     -5.19122214	     -4.72949100	    -67.74178542	      7.91133028	      4.23451777	     26.61440505	     42.43519222	     -1.61824564	     -6.74214046	    -61.58123577	      9.70052190	    -14.28069125	     22.04478761	    -71.99795581	      3.51580897	     -0.05120481	     17.70900919	     -3.32253397	      2.56051664	     30.36877314	    -20.20189019	      9.55468427	     33.31920332	    102.33274400	    -26.99921065	     -2.47018405	     44.04777063	     18.06207083	    -17.50742592	    -19.44005094	     41.99617796	    -54.78103689	    -22.82623900	    -21.51195198	    -90.00021046
      1.58000000	     -3.36317577	     -5.20477523	     88.83844773	      0.00023680	      0.81537152	      0.32998927	     45.71683810	     -5.18076540	     -4.77832155	    -67.40872274	      7.88412028	      4.23645475	     26.61524922	     42.21896934	     -1.64037167	     -6.82449026	    -61.21175655	      9.65729323	    -14.26812156	     22.02881589	    -71.76561454	      3.48321313	     -0.02734304	     17.71068542	     -3.33431328	      2.57120839	     29.98740750	    -20.25818420	      9.50031245	     33.14558977	    102.40708358	    -26.95159677	     -2.35361356	     44.03415990	     17.63332969	    -17.49212832	    -19.56075398	     41.84607831	    -54.75123535	    -22.88403799	    -21.56664663	    -90.00021046
      1.58250000	     -3.34701838	     -5.09148843	     88.79298140	      0.00031469	      0.81692450	      0.32945989	     45.38685446	     -5.14901383	     -4.80230084	    -67.06859405	      7.71503827	      4.26942019	     26.60234881	     41.87103300	     -1.70199588	     -6.95718392	    -60.85425524	      9.51677051	    -14.24797255	     21.99964172	    -71.62009419	      3.43165219	      0.02369625	     17.48474655	     -3.36974536	      2.57302185	     29.64445165	    -20.26609810	      9.33106086	     32.88991286	    102.50213025	    -26.91540116	     -2.13057105	     43.99997906	     17.20858331	    -17.41763832	    -19.81720253	     41.73022233	    -54.71380884	    -22.95054390	    -21.62022178	    -90.00021046
      1.58500000	     -3.31913448	     -4.81883619	     88.69304302	      0.00048878	      0.81875377	      0.32879516	     44.88456250	     -5.06937140	     -4.78993932	    -66.72381675	      7.43449923	      4.31561845	     26.57930997	     41.34982069	     -1.81134694	     -7.12797470	    -60.52925340	      9.32003284	    -14.24737661	     21.96108014	    -71.62235414	      3.33928854	      0.06113189	     17.15858952	     -3.41005612	      2.55122240	     29.36699682	    -20.17115454	      9.00247278	     32.57069516	    102.64908987	    -26.88542500	     -1.76561281	     43.93516872	     16.80845771	    -17.29855437	    -20.30769516	     41.56355677	    -54.64405357	    -23.04171272	    -21.69843519	    -90.00021046
      1.58750000	     -3.31070129	     -4.77386868	     88.69209561	      0.00043519	      0.81975359	      0.32816763	     44.72624787	     -5.05958179	     -4.77482280	    -66.61831707	      7.38917018	      4.31951695	     26.57302677	     41.20148139	     -1.80175261	     -7.14289633	    -60.43057706	      9.27291161	    -14.23647015	     21.95475116	    -71.39507662	      3.32490289	      0.08839255	     17.24471229	     -3.41270494	      2.55170471	     28.96429718	    -20.22063154	      8.98922309	     32.35315521	    102.66490157	    -26.87132608	     -1.69400206	     43.93525857	     16.38515613	    -17.28197270	    -20.37067435	     41.35848054	    -54.62720691	    -23.07242649	    -21.73852581	    -90.00021046
      1.59000000	     -3.37579954	     -3.97800245	     88.49635097	      0.00064286	      0.82280228	      0.32705053	     43.58253019	     -5.03552934	     -4.65213104	    -66.18054307	      7.18349780	      4.45729074	     26.66056945	     39.94197851	     -1.88601119	     -7.55128226	    -59.89782932	      9.19069325	    -14.16537620	     21.96529747	    -72.01768914	      3.10729054	     -0.01948864	     17.16931060	     -3.35953140	      2.62057070	     28.71448118	    -19.78805450	      7.01859856	     32.31672066	    105.14947922	    -25.74513899	     -0.34741758	     43.38143111	     16.10340239	    -16.71874637	    -22.69446931	     41.53586743	    -53.21079745	    -24.87200798	    -22.23617022	    -90.00021046
      1.59250000	     -3.36395749	     -3.99843117	     88.49396080	      0.00042922	      0.82399291	      0.32658395	     43.40374900	     -5.04515786	     -4.68053564	    -65.86906080	      7.10335374	      4.45812205	     26.64523756	     39.80629839	     -1.88461683	     -7.61340194	    -59.63944182	      9.08061131	    -14.15835662	     21.95141156	    -71.73163455	      3.11164374	      0.02478660	     17.00978789	     -3.39901778	      2.62149830	     28.33742740	    -19.85603034	      6.91060141	     32.12373471	    105.14170878	    -25.75625811	     -0.30810228	     43.35441557	     15.70090907	    -16.65365609	    -22.81926000	     41.37886009	    -53.22439798	    -24.83729755	    -22.21882397	    -90.00021046
      1.59500000	     -3.31772785	     -3.82746503	     88.49635582	      0.00014871	      0.82536360	      0.32592257	     43.06234936	     -5.04705853	     -4.73419642	    -65.66820539	      6.83632469	      4.48572170	     26.60899580	     39.48167764	     -1.89540003	     -7.63735847	    -59.44639100	      8.79917192	    -14.24095037	     21.92295379	    -71.57147366	      3.14249566	      0.09468816	     16.59157033	     -3.45124271	      2.55154055	     28.00308384	    -19.79309071	      6.42340040	     31.79158692	    105.11849415	    -25.81643756	     -0.17504858	     43.23281295	     15.36648346	    -16.42653242	    -23.40177413	     41.07633627	    -53.25767043	    -24.60365565	    -22.15798451	    -90.00021046
      1.59750000	     -3.30392868	     -3.82587276	     88.50968789	     -0.00009392	      0.82636304	      0.32528635	     42.91117447	     -5.05115710	     -4.72802865	    -65.49785187	      6.79817699	      4.49204704	     26.60148804	     39.36170146	     -1.88106818	     -7.66297720	    -59.29807179	      8.75036701	    -14.23351425	     21.91751371	    -71.30520350	      3.15353863	      0.11417948	     16.63830249	     -3.44899401	      2.54911087	     27.62983909	    -19.85377314	      6.40118231	     31.59941600	    105.11992581	    -25.80772206	     -0.12758539	     43.23257172	     14.96014370	    -16.38590899	    -23.45481573	     40.89452814	    -53.24937305	    -24.61304547	    -22.18643711	    -90.00021046
      1.60000000	     -3.28374624	     -3.85470661	     88.54683524	     -0.00059427	      0.82775470	      0.32490630	     42.67552279	     -5.09435941	     -4.78306575	    -65.04562666	      6.69244040	      4.52681683	     26.58226436	     39.17252960	     -1.86099905	     -7.76090881	    -58.88451668	      8.61068365	    -14.23635458	     21.90297938	    -71.01833882	      3.21855615	      0.15782422	     16.35892062	     -3.45585889	      2.53592619	     27.32232673	    -19.93990752	      6.21238059	     31.40767584	    105.10126262	    -25.82117627	     -0.04605353	     43.21038371	     14.59477637	    -16.25078710	    -23.68833254	     40.79784550	    -53.26136451	    -24.55257877	    -22.19071689	    -90.00021046
      1.60250000	     -3.19992443	     -3.48793637	     88.69350043	     -0.00107135	      0.82971164	      0.32395435	     41.99342480	     -5.18901111	     -5.01429919	    -64.73116416	      6.55229905	      4.62885733	     26.57375332	     38.59566814	     -1.78041075	     -7.64448920	    -58.60545397	      8.30220824	    -14.56524717	     21.90607001	    -71.11057432	      3.38952223	      0.20155210	     16.09820797	     -3.49946317	      2.39888925	     27.01335636	    -19.77450843	      5.26641926	     31.14045401	    105.20055937	    -25.69623294	      0.25553250	     43.05814214	     14.37758265	    -15.79208286	    -25.00303748	     40.51791805	    -53.15462832	    -24.12655780	    -22.35008494	    -90.00021046
      1.60500000	     -3.18370771	     -3.48075628	     88.69443242	     -0.00134681	      0.83068405	      0.32333302	     41.84738798	     -5.19311875	     -5.01697385	    -64.58081020	      6.50485865	      4.64032797	     26.56594829	     38.47403025	     -1.76996186	     -7.66165709	    -58.46697333	      8.23411563	    -14.54457186	     21.90093674	    -70.84103941	      3.39806104	      0.21767635	     16.10099773	     -3.49182168	      2.40022582	     26.66340840	    -19.84138186	      5.24370214	     30.97074805	    105.20815632	    -25.68216618	      0.29933027	     43.05964910	     13.97021952	    -15.73475969	    -25.03979527	     40.36541706	    -53.14352542	    -24.14751778	    -22.37966168	    -90.00021046
      1.60750000	     -3.15729817	     -3.50272055	     88.72472754	     -0.00173928	      0.83206156	      0.32296359	     41.61223896	     -5.22336405	     -5.08484353	    -64.14264030	      6.37757993	      4.68726099	     26.54617492	     38.28663873	     -1.77468508	     -7.74642340	    -58.08070439	      8.04459977	    -14.50630853	     21.88858700	    -70.55275075	      3.44541231	      0.26405650	     15.72330651	     -3.48023873	      2.39167254	     26.35710480	    -19.92580205	      5.07175639	     30.82457987	    105.20159753	    -25.66565081	      0.37197162	     43.04881843	     13.58708320	    -15.62932648	    -25.21397247	     40.35626235	    -53.14467008	    -24.12437053	    -22.38972627	    -90.00021046
      1.61000000	     -3.02427608	     -3.09074142	     88.84915125	     -0.00193724	      0.83408223	      0.32206656	     40.86144102	     -5.21998118	     -5.32485001	    -63.77471292	      6.18295924	      4.76372863	     26.53614837	     37.67967370	     -1.80405801	     -7.64999471	    -57.84991352	      7.73137819	    -14.69701776	     21.93529217	    -70.69049404	      3.58744859	      0.35451765	     15.40351149	     -3.47379882	      2.22952585	     26.08605895	    -19.74015721	      4.08710381	     30.57354306	    105.29295488	    -25.43821596	      0.69278069	     42.92104774	     13.34257337	    -15.27460121	    -26.27193850	     40.21005727	    -53.05009206	    -23.85009662	    -22.60229220	    -90.00021046
      1.61250000	     -2.99868978	     -3.11039810	     88.85120458	     -0.00219075	      0.83525881	      0.32161168	     40.69015598	     -5.22426646	     -5.37435494	    -63.48827650	      6.12532958	      4.77831434	     26.52617188	     37.52394689	     -1.81055065	     -7.70213379	    -57.54722886	      7.61090795	    -14.65116561	     21.93340473	    -70.41175642	      3.60245544	      0.39062587	     15.24950830	     -3.47100338	      2.23487321	     25.77067544	    -19.81772269	      4.00768605	     30.46042438	    105.32615546	    -25.41424065	      0.74361486	     42.91208396	     12.95924229	    -15.20299582	    -26.34167195	     40.15374813	    -53.04100331	    -23.87555157	    -22.62269910	    -90.00021046
